<svg id="Vrstva_1" xmlns="http://www.w3.org/2000/svg" viewBox="-337 285.7 165.5 24.6"><style>.st0{fill:#449dd7}.st1{fill:#52ae32}.st2{fill:#e84e0f}.st3{fill:#222}.st4{fill:none}</style><path class="st0" d="M-322.8 306.8c-4.4 0-8-3.6-8-8s3.6-8 8-8 8 3.6 8 8-3.6 8-8 8m0-14.2c-3.4 0-6.2 2.8-6.2 6.2s2.7 6.1 6.1 6.1 6.1-2.7 6.1-6.1c.1-3.4-2.6-6.2-6-6.2"/><path class="st1" d="M-316.6 310.3H-329c-4.4 0-8-3.6-8-8v-7.1c0-4.4 3.6-8 8-8h12.4c4.4 0 8 3.6 8 8v7.1c-.1 4.4-3.6 8-8 8m-12.4-21.2c-3.4 0-6.1 2.7-6.1 6.1v7.1c0 3.4 2.7 6.1 6.1 6.1h12.4c3.4 0 6.1-2.7 6.1-6.1v-7.1c0-3.4-2.7-6.1-6.1-6.1H-329z"/><path class="st2" d="M-320.7 298.8c0 1.2-.9 2.1-2.1 2.1-1.2 0-2.1-.9-2.1-2.1 0-1.2.9-2.1 2.1-2.1 1.1 0 2.1.9 2.1 2.1"/><path class="st3" d="M-297.2 306.6c-2.5 0-4.6-.4-6.4-2.2l2-2c1.2 1.3 2.9 1.6 4.4 1.6 1.9 0 3.4-.7 3.4-2.1 0-1-.6-1.7-2.1-1.8l-2.5-.2c-2.9-.2-4.5-1.5-4.5-4.2 0-3 2.6-4.7 5.8-4.7 2.3 0 4.3.5 5.7 1.7l-1.9 2c-1-.8-2.3-1.1-3.8-1.1-1.8 0-2.8.8-2.8 2 0 .9.5 1.6 2.1 1.8l2.4.2c2.9.2 4.6 1.6 4.6 4.3 0 3.1-2.7 4.7-6.4 4.7M-288.6 291.1h3.1v15.3h-3.1zM-263.4 306.4V297c0-2.3-1.4-3.3-3.1-3.3s-3.2 1.1-3.2 3.3v9.5h-3.1v-9.4c.1-2.4-1.3-3.4-3-3.4-1.8 0-3.2 1-3.2 3.4v9.4h-3.1v-15.4h3v1.5c1-1.1 2.5-1.7 4.1-1.7 1.9 0 3.4.8 4.4 2.2 1.2-1.5 2.8-2.2 4.8-2.2 1.6 0 3 .5 3.9 1.4 1.2 1.2 1.6 2.6 1.6 4.3v9.8h-3.1M-246.6 305.3c-.8.8-2.2 1.4-3.7 1.4-1.6 0-2.9-.4-4-1.8v5.4h-3.1v-19.2h3v1.6c1.1-1.4 2.4-1.8 4.1-1.8 1.5 0 2.9.5 3.8 1.4 1.5 1.5 1.7 4.1 1.7 6.5 0 2.3-.2 4.9-1.8 6.5m-4.5-11.6c-2.8 0-3.2 2.4-3.2 5.1 0 2.7.4 5.1 3.2 5.1 2.8 0 3.2-2.4 3.2-5.1 0-2.8-.4-5.1-3.2-5.1M-237.6 306.4c-2.9 0-4.2-2-4.2-4.2v-14.9h3.1v14.8c0 1.2.4 1.8 1.7 1.8h1.4v2.6l-2-.1M-231.6 299.7c0 2.6 1.4 4.3 3.9 4.3 1.7 0 2.6-.5 3.7-1.6l2 1.8c-1.6 1.6-3.1 2.4-5.8 2.4-3.8 0-6.9-2-6.9-7.9 0-5 2.6-7.8 6.5-7.8 4.1 0 6.5 3 6.5 7.4v1.4h-9.9m6.5-4.3c-.5-1.1-1.6-1.9-3-1.9-1.5 0-2.6.8-3.1 1.9-.3.7-.4 1.1-.4 2.1h6.9c0-.9-.1-1.4-.4-2.1M-203.8 306.4h-2.6l-3.6-10.7-3.6 10.7h-2.7l-4.7-15.3h3.2l3 10.8 3.6-10.8h2.4l3.5 10.8 3-10.8h3.3l-4.8 15.3M-189.3 306.4V305c-1.1 1.1-2.2 1.6-4.1 1.6-1.9 0-3.2-.5-4.1-1.4-.8-.8-1.2-2-1.2-3.3 0-2.6 1.8-4.4 5.3-4.4h4.1v-1.1c0-1.9-1-2.9-3.4-2.9-1.7 0-2.5.4-3.4 1.5l-2-1.9c1.4-1.7 3-2.2 5.5-2.2 4.2 0 6.3 1.8 6.3 5.3v10.3h-3m-.1-6.8h-3.6c-1.8 0-2.8.8-2.8 2.2 0 1.4.9 2.2 2.8 2.2 1.2 0 2.1-.1 2.9-.9.5-.5.7-1.2.7-2.3v-1.2zM-177.4 307.1c-.3.8-.7 1.5-1.1 1.9-.8.8-2 1.1-3.1 1.1h-1.2v-2.8h.8c1.3 0 1.8-.4 2.2-1.6l-5.4-14.6h3.3l3.7 10.8 3.6-10.8h3.3l-6.1 16M-288.6 285.7h3.1v3.1h-3.1z"/><path class="st4" d="M-341 257.2h173v84h-173z"/></svg>
